<?xml version="1.0"?>
<svg version="1.1" xmlns="http://www.w3.org/2000/svg" width="400px" height="40px" style=""><path fill="#" d="M157.832,16.22l0,0.168l-0.196,1.68c-0.056,0.504-0.364,0.588-0.952,0.588l-7.028,0l0,5.068l6.468,0c0.532,0,0.7,0.224,0.7,0.616l0,1.596c0,0.476-0.196,0.672-0.672,0.672l-6.496,0l0,7.812c0,0.504-0.196,0.7-0.672,0.7l-2.184,0c-0.56,0-0.756-0.14-0.756-0.756l0-17.92c0-0.448,0.196-0.7,0.644-0.7l10.556,0c0.42,0,0.588,0.14,0.588,0.476z M174.198,28.288c0,0.672-0.224,0.812-0.924,0.812l-8.204,0c0.224,2.156,1.792,3.64,4.004,3.64c1.176,0,2.408-0.28,3.444-0.672c0.112-0.028,0.196-0.084,0.308-0.084c0.196,0,0.336,0.112,0.392,0.336l0.392,1.428c0.028,0.14,0.056,0.252,0.056,0.336c0,0.196-0.112,0.336-0.448,0.476c-1.372,0.616-3.248,0.896-4.704,0.896c-4.396,0-7-2.8-7-7.168c0-4.2,2.772-7.112,6.944-7.112c1.708,0,3.108,0.644,4.088,1.68c1.288,1.344,1.652,3.108,1.652,5.012l0,0.42z M170.866,26.888l0-0.308c-0.056-1.456-0.896-2.8-2.604-2.8c-1.82,0-2.912,1.456-3.136,3.108l5.74,0z M190.48,34.42c0,0.476-0.28,0.7-0.616,0.7l-1.82,0c-0.448,0-0.644-0.224-0.672-0.56l-0.056-0.756c-0.784,0.896-2.352,1.652-3.808,1.652c-4.06,0-5.908-3.22-5.908-6.972c0-3.92,2.184-7.336,6.132-7.336c1.26,0,2.576,0.504,3.36,1.316l0-6.3c0-0.504,0.14-0.7,0.588-0.756l2.072-0.28c0.028,0,0.252-0.028,0.28-0.028c0.336,0,0.448,0.14,0.448,0.56l0,18.76z M187.092,31.312l0-6.076c-0.56-0.756-1.624-1.372-2.688-1.372c-2.268,0-3.276,2.128-3.276,4.424s0.84,4.424,3.108,4.424c1.036,0,2.296-0.7,2.856-1.4z M207.546,28.288c0,0.672-0.224,0.812-0.924,0.812l-8.204,0c0.224,2.156,1.792,3.64,4.004,3.64c1.176,0,2.408-0.28,3.444-0.672c0.112-0.028,0.196-0.084,0.308-0.084c0.196,0,0.336,0.112,0.392,0.336l0.392,1.428c0.028,0.14,0.056,0.252,0.056,0.336c0,0.196-0.112,0.336-0.448,0.476c-1.372,0.616-3.248,0.896-4.704,0.896c-4.396,0-7-2.8-7-7.168c0-4.2,2.772-7.112,6.944-7.112c1.708,0,3.108,0.644,4.088,1.68c1.288,1.344,1.652,3.108,1.652,5.012l0,0.42z M204.214,26.888l0-0.308c-0.056-1.456-0.896-2.8-2.604-2.8c-1.82,0-2.912,1.456-3.136,3.108l5.74,0z M219.432,21.652c0,0.084,0,0.168-0.028,0.252l-0.308,1.988c-0.028,0.252-0.168,0.364-0.392,0.364l-0.112,0c-0.224-0.056-0.504-0.084-0.756-0.084c-0.952,0-1.988,0.504-2.688,1.344l0,8.904c0,0.448-0.196,0.7-0.672,0.7l-2.044,0c-0.448,0-0.672-0.224-0.672-0.7l0-8.736l0-3.444c0-0.56,0.28-0.7,0.7-0.7l1.792,0c0.448,0,0.7,0.14,0.7,0.532l0.028,0.896c0.868-1.092,1.82-1.792,3.388-1.792c0.224,0,0.532,0.056,0.784,0.112c0.196,0.056,0.28,0.14,0.28,0.364z M226.866,17.984c0,1.092-0.952,1.764-1.876,1.764s-1.904-0.616-1.904-1.736s0.924-1.792,1.904-1.792c0.952,0,1.876,0.644,1.876,1.764z M226.698,34.42c0,0.504-0.224,0.7-0.7,0.7l-1.96,0c-0.504,0-0.728-0.196-0.728-0.7l0-12.236c0-0.476,0.28-0.644,0.728-0.644l1.96,0c0.448,0,0.7,0.14,0.7,0.644l0,12.236z M242.28,34.168c0,0.224-0.14,0.336-0.392,0.448c-1.344,0.616-2.576,0.84-4.06,0.84c-4.312,0-6.692-2.688-6.692-7c0-4.34,2.604-7.28,6.944-7.28c1.26,0,2.576,0.252,3.752,0.784c0.224,0.112,0.336,0.168,0.336,0.392c0,0.084-0.028,0.252-0.056,0.336l-0.364,1.484c-0.056,0.252-0.168,0.392-0.336,0.392c-0.084,0-0.196-0.056-0.308-0.112c-0.812-0.336-1.708-0.616-2.688-0.616c-2.408,0-3.78,1.708-3.78,4.452c0,2.688,1.232,4.536,3.64,4.536c1.204,0,1.96-0.224,2.94-0.616c0.084-0.028,0.196-0.084,0.28-0.084c0.168,0,0.28,0.14,0.336,0.336l0.364,1.232c0.056,0.196,0.084,0.364,0.084,0.476z M257.582,34.784c0,0.252-0.252,0.336-0.532,0.336l-2.408,0c-0.504,0-0.84-0.14-1.12-0.588l-3.584-5.88l-0.308,0.28l0,3.892l0,1.596c0,0.476-0.196,0.7-0.644,0.7l-2.1,0c-0.42,0-0.644-0.252-0.644-0.672l0-18.368c0-0.448,0.168-0.616,0.588-0.672l2.044-0.28c0.084,0,0.14-0.028,0.224-0.028c0.336,0,0.532,0.168,0.532,0.644l0,4.704l0,6.524l0.056,0l3.668-5.04c0.224-0.308,0.392-0.392,0.756-0.392l2.492,0c0.224,0,0.364,0.112,0.364,0.28c0,0.084-0.028,0.196-0.112,0.308l-4.004,5.04l4.536,7.084c0.112,0.168,0.196,0.364,0.196,0.532z M285.918,34.672c0,0.28-0.14,0.448-0.504,0.448l-2.492,0c-0.588,0-0.784-0.224-0.952-0.672l-1.456-4.116l-7.084,0l-1.456,4.2c-0.112,0.364-0.308,0.588-0.756,0.588l-2.492,0c-0.28,0-0.392-0.14-0.392-0.364c0-0.084,0-0.196,0.056-0.308l6.832-18.144c0.14-0.336,0.336-0.56,0.756-0.56l2.24,0c0.42,0,0.672,0.196,0.784,0.504l6.86,18.06c0.056,0.14,0.056,0.252,0.056,0.364z M279.562,27.616l-1.988-5.908c-0.252-0.784-0.42-1.372-0.56-1.82l-0.056,0c-0.14,0.476-0.308,1.064-0.588,1.848l-1.988,5.88l5.18,0z M298.028,34.28c0,0.28-0.14,0.42-0.42,0.532c-0.868,0.364-2.016,0.644-3.136,0.644c-1.428,0-2.66-0.364-3.36-1.176c-0.868-0.98-0.896-2.128-0.896-4.172l0-6.244l-1.316,0c-0.532,0-0.616-0.112-0.616-0.7l0-1.064c0-0.336,0.168-0.56,0.504-0.56l1.428,0l0-3.052c0-0.476,0.252-0.616,0.7-0.672l2.016-0.252l0.14,0c0.364,0,0.532,0.196,0.532,0.616l0,3.36l3.164,0c0.336,0,0.532,0.112,0.532,0.476l0,1.316c0,0.336-0.224,0.532-0.56,0.532l-3.136,0l0,6.412c0,0.84,0.056,1.456,0.364,1.904c0.252,0.364,0.644,0.588,1.316,0.588c0.7,0,1.288-0.168,1.792-0.336c0.112-0.028,0.196-0.056,0.28-0.056c0.196,0,0.308,0.112,0.364,0.336l0.28,1.4c0.028,0.084,0.028,0.112,0.028,0.168z M315.066,34.588c0,0.336-0.224,0.532-0.56,0.532l-1.344,0c-1.456,0-2.1-0.7-2.296-1.652l-0.056,0c-0.7,1.036-2.52,1.988-4.06,1.988c-3.948,0-5.74-3.248-5.74-6.888c0-4.844,2.912-7.392,6.048-7.392c1.484,0,2.884,0.672,3.584,1.624l0.056-0.756c0.028-0.308,0.252-0.504,0.588-0.504l1.96,0c0.364,0,0.588,0.196,0.588,0.616l0,9.716c0,0.392,0.056,0.672,0.168,0.812c0.084,0.084,0.196,0.112,0.336,0.112l0.224,0c0.336,0,0.504,0.112,0.504,0.476l0,1.316z M310.446,30.78l0-5.404c-0.56-0.812-1.708-1.428-2.772-1.428c-1.708,0-3.164,1.456-3.164,4.396c0,2.352,0.896,4.34,2.968,4.34c1.372,0,2.548-1.036,2.968-1.904z M322.556,34.42c0,0.476-0.224,0.7-0.616,0.7l-2.128,0c-0.392,0-0.644-0.196-0.644-0.672l0-18.368c0-0.476,0.196-0.616,0.56-0.672l2.016-0.28c0.056,0,0.14-0.028,0.196-0.028c0.336,0,0.616,0.168,0.616,0.616l0,18.704z M331.53,17.984c0,1.092-0.952,1.764-1.876,1.764s-1.904-0.616-1.904-1.736s0.924-1.792,1.904-1.792c0.952,0,1.876,0.644,1.876,1.764z M331.362,34.42c0,0.504-0.224,0.7-0.7,0.7l-1.96,0c-0.504,0-0.728-0.196-0.728-0.7l0-12.236c0-0.476,0.28-0.644,0.728-0.644l1.96,0c0.448,0,0.7,0.14,0.7,0.644l0,12.236z"/><path fill="#" d=""/></svg>
