<?xml version="1.0"?>
<svg version="1.1" xmlns="http://www.w3.org/2000/svg" width="400px" height="44px" style=""><path fill="#c73248" d="M141.216,35.58l0-13.16l-2.66,0l-0.7,2.66l-2.576,0l0-6.02l16.24,0l0,6.02l-2.604,0l-0.7-2.66l-2.66,0l0,13.16l2.66,0.84l0,2.38l-9.66,0l0-2.38z M156.46228,19.06c0-1.596,1.148-2.52,2.408-2.52c1.456,0,2.352,0.756,2.352,2.52c0,1.652-1.204,2.548-2.352,2.548c-1.512,0-2.408-0.896-2.408-2.548z M161.16628,35.86l1.96,0.7l0,2.24l-8.4,0l0-2.24l2.24-0.7l0-9.1l-2.24-0.7l0-2.24l6.44-0.14l0,12.18z M172.91256,29.308l1.848,0l1.904-2.856l-1.232-0.392l0-2.24l7.224-0.14l0,2.38l-1.96,0.364l-2.604,3.668l3.136,5.796l2.128,0.672l0,2.24l-5.18,0l-3.472-6.832l-1.792,0l0,3.892l1.54,0.7l0,2.24l-7.98,0l0-2.24l2.24-0.7l0-15.736l-2.24-0.56l0-2.24l6.44-0.224l0,12.208z M186.00284,26.06l0-2.24l6.44-0.14l0,9.66c0,1.54,0.448,2.24,1.708,2.24c1.82,0,3.164-1.512,3.164-1.512l0-7.308l-2.24-0.7l0-2.24l6.44-0.14l0,12.18l2.24,0.56l0,2.184l-5.908,0.196l-0.28-1.96s-2.24,2.24-4.9,2.24c-2.8,0-4.424-1.876-4.424-5.012l0-7.308z"/><path fill="#c73270" d=""/></svg>
